<?xml version="1.0" encoding="UTF-8" standalone="no"?>
<svg
   width="800px"
   height="800px"
   viewBox="0 0 16 16"
   fill="none"
   version="1.1"
   id="svg2"
   sodipodi:docname="ddcutil_brightness2.svg"
   inkscape:version="1.3.2 (091e20ef0f, 2023-11-25, custom)"
   xmlns:inkscape="http://www.inkscape.org/namespaces/inkscape"
   xmlns:sodipodi="http://sodipodi.sourceforge.net/DTD/sodipodi-0.dtd"
   xmlns="http://www.w3.org/2000/svg"
   xmlns:svg="http://www.w3.org/2000/svg">
  <defs
     id="defs2" />
  <sodipodi:namedview
     id="namedview2"
     pagecolor="#505050"
     bordercolor="#ffffff"
     borderopacity="1"
     inkscape:showpageshadow="0"
     inkscape:pageopacity="0"
     inkscape:pagecheckerboard="1"
     inkscape:deskcolor="#505050"
     inkscape:zoom="0.77251416"
     inkscape:cx="609.05033"
     inkscape:cy="374.75041"
     inkscape:window-width="1920"
     inkscape:window-height="1047"
     inkscape:window-x="0"
     inkscape:window-y="33"
     inkscape:window-maximized="1"
     inkscape:current-layer="svg2" />
  <g
     fill="#fdbc4b"
     id="g2"
     transform="matrix(0.73333333,0,0,0.75,-0.36666666,2)">
    <path
       d="m 8,0 a 0.75,0.75 0 0 1 0.75,0.75 v 1 a 0.75,0.75 0 0 1 -1.5,0 v -1 A 0.75,0.75 0 0 1 8,0 Z m 5.28,2.22 a 0.75,0.75 0 0 1 0,1.06 l -0.707,0.707 a 0.75,0.75 0 1 1 -1.06,-1.06 L 12.22,2.22 a 0.75,0.75 0 0 1 1.06,0 z M 2.72,3.28 A 0.75,0.75 0 0 1 3.78,2.22 l 0.707,0.707 a 0.75,0.75 0 0 1 -1.06,1.06 z M 15.5,7.5 a 0.75,0.75 0 0 1 -0.75,0.75 h -1 a 0.75,0.75 0 0 1 0,-1.5 h 1 A 0.75,0.75 0 0 1 15.5,7.5 Z M 2.25,8.25 a 0.75,0.75 0 0 0 0,-1.5 h -1 a 0.75,0.75 0 0 0 0,1.5 z m 4,7 A 0.75,0.75 0 0 1 7,14.5 H 9 A 0.75,0.75 0 0 1 9,16 H 7 A 0.75,0.75 0 0 1 6.25,15.25 Z"
       id="path1" />
    <path
       fill-rule="evenodd"
       d="M 8,3.5 A 4.5,4.5 0 0 0 3.5,8 c 0,1.53 0.926,2.465 1.718,3.264 l 0.2,0.203 c 0.05,0.05 0.081,0.124 0.081,0.208 C 5.5,12.683 6.317,13.5 7.325,13.5 H 8.69 c 1,0 1.811,-0.81 1.811,-1.81 0,-0.083 0.033,-0.159 0.088,-0.213 l 0.067,-0.066 C 11.492,10.592 12.5,9.605 12.5,8 A 4.5,4.5 0 0 0 8,3.5 Z M 5,8 a 3,3 0 0 1 6,0 C 11,8.928 10.46,9.502 9.538,10.406 9.191,10.746 9,11.209 9,11.689 A 0.31,0.31 0 0 1 8.69,12 H 7.324 A 0.326,0.326 0 0 1 7,11.674 C 7,11.213 6.825,10.76 6.493,10.419 L 6.378,10.302 C 5.49,9.397 5,8.894 5,8 Z"
       clip-rule="evenodd"
       id="path2" />
  </g>
</svg>
