<?xml version="1.0" encoding="UTF-8" standalone="no"?>
<svg
   fill="#34AD64"
   height="24"
   viewBox="0 -960 960 960"
   width="24"
   version="1.1"
   id="svg1"
   sodipodi:docname="volume3.svg"
   inkscape:version="1.3.2 (091e20ef0f, 2023-11-25, custom)"
   xmlns:inkscape="http://www.inkscape.org/namespaces/inkscape"
   xmlns:sodipodi="http://sodipodi.sourceforge.net/DTD/sodipodi-0.dtd"
   xmlns="http://www.w3.org/2000/svg"
   xmlns:svg="http://www.w3.org/2000/svg">
  <defs
     id="defs1" />
  <sodipodi:namedview
     id="namedview1"
     pagecolor="#505050"
     bordercolor="#ffffff"
     borderopacity="1"
     inkscape:showpageshadow="0"
     inkscape:pageopacity="0"
     inkscape:pagecheckerboard="1"
     inkscape:deskcolor="#505050"
     inkscape:zoom="24.7782"
     inkscape:cx="14.024425"
     inkscape:cy="14.024425"
     inkscape:window-width="1920"
     inkscape:window-height="1047"
     inkscape:window-x="0"
     inkscape:window-y="33"
     inkscape:window-maximized="1"
     inkscape:current-layer="svg1" />
  <path
     d="m 440,-131 v -82 q 90,-26 145,-100 55,-74 55,-168 0,-94 -55,-168 -55,-74 -145,-100 v -82 q 124,28 202,125.5 78,97.5 78,224.5 0,127 -78,224.5 Q 564,-159 440,-131 Z M 0,-360 v -240 h 160 l 200,-200 v 640 L 160,-360 Z m 440,40 v -322 q 47,22 73.5,66 26.5,44 26.5,96 0,51 -26.5,94.5 Q 487,-342 440,-320 Z m -160,-286 -86,86 H 80 v 80 h 114 l 86,86 z m -100,126 z"
     id="path1" />
</svg>
